<svg width="248" height="60" xmlns="http://www.w3.org/2000/svg"><g fill="none" fill-rule="evenodd"><path d="M7.684 28.822c.45 1.48 1.44 2.22 2.97 2.22 1.497 0 2.47-.74 2.919-2.22.45-1.48.674-3.685.674-6.613 0-2.928-.225-5.132-.674-6.613-.45-1.48-1.422-2.221-2.92-2.221-1.53 0-2.52.74-2.969 2.221-.449 1.481-.674 3.685-.674 6.613 0 2.928.225 5.132.674 6.613ZM7.01 0v11.28h.1c.731-1.065 1.555-1.864 2.47-2.396.915-.532 2.022-.799 3.319-.799 2.827 0 4.907 1.107 6.238 3.319 1.332 2.213 1.997 5.814 1.997 10.805 0 4.99-.665 8.567-1.997 10.73-1.33 2.163-3.41 3.244-6.238 3.244-1.397 0-2.57-.25-3.518-.749-.949-.499-1.805-1.38-2.57-2.645h-.1v2.845H.123V0H7.01ZM38.302 16.445c-.1-.781-.275-1.448-.524-1.997-.25-.549-.599-.964-1.048-1.248-.449-.282-1.023-.423-1.722-.423-.698 0-1.272.158-1.722.474-.449.316-.806.731-1.072 1.247a6.104 6.104 0 0 0-.574 1.722 10.367 10.367 0 0 0-.175 1.896v1.048h7.037a29.41 29.41 0 0 0-.2-2.719Zm-6.837 8.958c0 .798.058 1.572.175 2.32.116.75.306 1.415.574 1.997.266.583.615 1.047 1.047 1.397.432.35.965.524 1.598.524 1.163 0 2.012-.415 2.544-1.248.533-.83.899-2.095 1.099-3.792h6.188c-.134 3.127-.965 5.506-2.495 7.137-1.532 1.63-3.943 2.445-7.237 2.445-2.495 0-4.442-.417-5.84-1.248-1.396-.83-2.428-1.93-3.093-3.294-.666-1.364-1.073-2.894-1.223-4.59a57.722 57.722 0 0 1-.225-5.091c0-1.798.125-3.527.375-5.191.25-1.663.748-3.144 1.497-4.442.749-1.297 1.821-2.328 3.219-3.094 1.398-.765 3.26-1.148 5.59-1.148 1.996 0 3.634.325 4.915.974 1.28.648 2.288 1.563 3.02 2.745.731 1.18 1.23 2.612 1.497 4.292.266 1.68.399 3.551.399 5.614v1.547H31.465v2.146ZM61.907 16.445c-.099-.781-.274-1.448-.523-1.997-.25-.549-.6-.964-1.049-1.248-.449-.282-1.023-.423-1.721-.423-.7 0-1.273.158-1.722.474-.45.316-.807.731-1.073 1.247a6.173 6.173 0 0 0-.574 1.722 10.404 10.404 0 0 0-.175 1.896v1.048h7.037a29.125 29.125 0 0 0-.2-2.719Zm-6.837 8.958c0 .798.058 1.572.175 2.32a7.59 7.59 0 0 0 .574 1.997c.266.583.615 1.047 1.048 1.397.432.35.965.524 1.597.524 1.164 0 2.012-.415 2.545-1.248.532-.83.898-2.095 1.098-3.792h6.188c-.133 3.127-.965 5.506-2.495 7.137-1.53 1.63-3.942 2.445-7.236 2.445-2.496 0-4.442-.417-5.84-1.248-1.397-.83-2.429-1.93-3.094-3.294s-1.073-2.894-1.223-4.59a58.22 58.22 0 0 1-.223-5.091c0-1.798.124-3.527.373-5.191.25-1.663.749-3.144 1.497-4.442.75-1.297 1.822-2.328 3.22-3.094 1.397-.765 3.26-1.148 5.59-1.148 1.996 0 3.634.325 4.915.974 1.28.648 2.287 1.563 3.02 2.745.731 1.18 1.23 2.612 1.496 4.292.266 1.68.4 3.551.4 5.614v1.547H55.07v2.146ZM85.589 16.52a6.753 6.753 0 0 0-.45-1.723 3.08 3.08 0 0 0-.923-1.247c-.399-.316-.932-.474-1.597-.474-.832 0-1.514.192-2.047.573-.532.384-.93.95-1.197 1.697-.267.75-.449 1.697-.548 2.845-.1 1.148-.15 2.504-.15 4.068 0 1.663.05 3.086.15 4.267.099 1.18.281 2.154.548 2.92.266.765.64 1.321 1.123 1.67.482.35 1.106.525 1.872.525 1.163 0 2.012-.498 2.545-1.498.531-.997.798-2.595.798-4.79H92.3c0 3.527-.79 6.213-2.37 8.06-1.582 1.847-4.2 2.77-7.86 2.77-1.732 0-3.237-.209-4.518-.624a6.547 6.547 0 0 1-3.193-2.246c-.85-1.08-1.49-2.528-1.922-4.342-.433-1.813-.649-4.067-.649-6.762 0-2.761.266-5.049.799-6.863.531-1.813 1.28-3.26 2.246-4.341.964-1.081 2.112-1.839 3.443-2.271 1.33-.432 2.795-.649 4.392-.649 3.194 0 5.597.932 7.212 2.795 1.613 1.864 2.42 4.392 2.42 7.586h-6.588a15 15 0 0 0-.124-1.946M103.53 18.815h.1l6.937-10.03h7.586l-7.736 10.579 8.884 16.27h-7.587l-5.74-11.03-2.444 3.194v7.836h-6.888V0h6.888v18.815" fill="#041E42"/><path d="M134.647 16.52a6.753 6.753 0 0 0-.45-1.723 3.087 3.087 0 0 0-.923-1.247c-.4-.316-.932-.474-1.597-.474-.832 0-1.514.192-2.046.573-.533.384-.932.95-1.197 1.697-.268.75-.45 1.697-.55 2.845-.1 1.148-.15 2.504-.15 4.068 0 1.663.05 3.086.15 4.267.1 1.18.282 2.154.55 2.92.265.765.64 1.321 1.123 1.67.48.35 1.105.525 1.871.525 1.164 0 2.012-.498 2.545-1.498.531-.997.798-2.595.798-4.79h6.588c0 3.527-.791 6.213-2.37 8.06-1.581 1.847-4.201 2.77-7.861 2.77-1.73 0-3.236-.209-4.517-.624-1.28-.416-2.345-1.165-3.193-2.246-.849-1.08-1.49-2.528-1.922-4.342-.432-1.813-.648-4.067-.648-6.762 0-2.761.265-5.049.798-6.863.532-1.813 1.28-3.26 2.246-4.341.964-1.081 2.112-1.839 3.443-2.271 1.33-.432 2.795-.649 4.392-.649 3.194 0 5.597.932 7.212 2.795 1.613 1.864 2.42 4.392 2.42 7.586h-6.588a15 15 0 0 0-.124-1.946M158.177 16.445c-.1-.781-.274-1.448-.524-1.997-.249-.549-.598-.964-1.048-1.248-.449-.282-1.023-.423-1.722-.423-.698 0-1.272.158-1.721.474-.45.316-.807.731-1.073 1.247a6.146 6.146 0 0 0-.574 1.722 10.404 10.404 0 0 0-.174 1.896v1.048h7.036a29.561 29.561 0 0 0-.2-2.719Zm-6.836 8.958c0 .798.057 1.572.174 2.32.116.75.307 1.415.574 1.997.266.583.616 1.047 1.048 1.397.432.35.964.524 1.597.524 1.164 0 2.012-.415 2.545-1.248.532-.83.898-2.095 1.098-3.792h6.188c-.133 3.127-.965 5.506-2.495 7.137-1.53 1.63-3.943 2.445-7.236 2.445-2.496 0-4.442-.417-5.84-1.248-1.396-.83-2.428-1.93-3.094-3.294-.666-1.364-1.072-2.894-1.222-4.59a57.722 57.722 0 0 1-.225-5.091c0-1.798.125-3.527.375-5.191.248-1.663.748-3.144 1.496-4.442.75-1.297 1.822-2.328 3.22-3.094 1.397-.765 3.26-1.148 5.589-1.148 1.997 0 3.635.325 4.916.974 1.28.648 2.287 1.563 3.02 2.745.73 1.18 1.23 2.612 1.496 4.292.267 1.68.4 3.551.4 5.614v1.547H151.34v2.146ZM175.645 8.784v3.144h.1c.731-1.33 1.679-2.303 2.844-2.92 1.164-.614 2.495-.923 3.993-.923 2.195 0 3.884.6 5.065 1.797 1.18 1.197 1.771 3.144 1.771 5.84v19.912h-6.887V17.118c0-1.397-.233-2.37-.698-2.92-.467-.549-1.215-.823-2.246-.823-2.429 0-3.643 1.481-3.643 4.442v17.817h-6.887V8.784h6.588M202.894 1.098v7.686h3.993v4.69h-3.993v14.524c0 1.065.158 1.822.474 2.271.316.449.973.673 1.972.673.265 0 .531-.007.798-.024.266-.017.515-.042.749-.075v4.79c-.766 0-1.506.025-2.221.076-.716.05-1.473.075-2.271.075-1.33 0-2.42-.092-3.268-.275-.85-.183-1.498-.55-1.948-1.098-.448-.549-.757-1.273-.922-2.17-.167-.9-.25-2.03-.25-3.394V13.475h-3.494v-4.69h3.494V1.097h6.887M222.507 16.445c-.1-.781-.275-1.448-.524-1.997-.25-.549-.599-.964-1.048-1.248-.45-.282-1.024-.423-1.722-.423s-1.273.158-1.722.474c-.45.316-.807.731-1.073 1.247a6.132 6.132 0 0 0-.573 1.722 10.404 10.404 0 0 0-.175 1.896v1.048h7.036a29.423 29.423 0 0 0-.2-2.719Zm-6.837 8.958c0 .798.058 1.572.175 2.32.116.75.306 1.415.573 1.997.266.583.616 1.047 1.048 1.397.432.35.965.524 1.598.524 1.163 0 2.012-.415 2.544-1.248.533-.83.899-2.095 1.098-3.792h6.189c-.134 3.127-.966 5.506-2.495 7.137-1.531 1.63-3.943 2.445-7.237 2.445-2.495 0-4.441-.417-5.84-1.248-1.396-.83-2.428-1.93-3.093-3.294-.667-1.364-1.073-2.894-1.223-4.59a57.887 57.887 0 0 1-.225-5.091c0-1.798.125-3.527.375-5.191.249-1.663.748-3.144 1.497-4.442.749-1.297 1.822-2.328 3.219-3.094 1.397-.765 3.26-1.148 5.59-1.148 1.996 0 3.635.325 4.915.974 1.281.648 2.288 1.563 3.02 2.745.731 1.18 1.23 2.612 1.497 4.292.266 1.68.399 3.551.399 5.614v1.547H215.67v2.146ZM239.974 8.784v3.593h.1c.699-1.298 1.546-2.337 2.546-3.119.997-.781 2.211-1.173 3.642-1.173a7.597 7.597 0 0 1 1.248.1v6.588a22.952 22.952 0 0 0-2.146-.1c-.6 0-1.198.083-1.797.25a4.79 4.79 0 0 0-1.646.823c-.5.382-.899.882-1.199 1.498-.299.615-.449 1.371-.449 2.27v16.12h-6.886V8.784h6.587" fill="#2C79B5"/><path d="M2.857 52.375c0 .538.142.972.426 1.302.284.33.695.494 1.232.494.492 0 .883-.121 1.175-.368.291-.245.438-.614.438-1.105 0-.4-.116-.703-.346-.91-.23-.208-.5-.372-.806-.496l-2.235-.806c-.875-.306-1.535-.74-1.98-1.3-.446-.561-.668-1.28-.668-2.155 0-.507.084-.986.253-1.44a3.03 3.03 0 0 1 .806-1.185c.369-.338.841-.607 1.417-.807.576-.199 1.27-.299 2.085-.299 1.443 0 2.51.307 3.2.921.692.615 1.037 1.482 1.037 2.603v.507H6.036c0-.646-.104-1.117-.312-1.417-.206-.3-.572-.45-1.094-.45-.4 0-.748.112-1.048.335-.3.223-.45.557-.45 1.002 0 .307.097.584.29.83.19.245.556.452 1.093.621l1.912.645c.998.338 1.704.78 2.119 1.325.415.545.622 1.285.622 2.222 0 .66-.116 1.233-.346 1.716-.23.484-.549.887-.956 1.21a3.755 3.755 0 0 1-1.45.69 7.729 7.729 0 0 1-1.855.208c-.89 0-1.631-.085-2.223-.254-.59-.168-1.06-.421-1.405-.76a2.744 2.744 0 0 1-.725-1.231A5.893 5.893 0 0 1 0 52.398v-.437h2.857v.414M13.567 51.569c.03.537.104.999.219 1.382.115.383.288.684.518.898.23.215.537.322.922.322.645 0 1.09-.337 1.335-1.013.246-.675.369-1.788.369-3.34 0-1.55-.123-2.664-.369-3.34-.246-.675-.69-1.013-1.335-1.013-.385 0-.691.108-.922.322-.23.215-.403.515-.518.898a6.058 6.058 0 0 0-.219 1.383c-.032.538-.047 1.121-.047 1.75 0 .63.015 1.213.047 1.751Zm-2.972-4.561c.17-.814.446-1.493.83-2.038.383-.545.886-.96 1.508-1.244.622-.284 1.386-.426 2.293-.426.951-.016 1.742.11 2.372.38.63.269 1.129.68 1.497 1.232.369.553.63 1.237.783 2.05.153.815.23 1.766.23 2.856 0 1.06-.084 1.997-.253 2.81-.169.814-.445 1.494-.83 2.04a3.43 3.43 0 0 1-1.508 1.209c-.621.26-1.385.391-2.291.391-.954.015-1.744-.104-2.373-.357a3.201 3.201 0 0 1-1.497-1.198c-.369-.545-.63-1.228-.784-2.05-.154-.821-.23-1.77-.23-2.845 0-1.06.084-1.996.253-2.81ZM27.721 47.193a3.116 3.116 0 0 0-.207-.796 1.43 1.43 0 0 0-.427-.575c-.184-.146-.43-.218-.736-.218-.384 0-.7.088-.944.264-.247.177-.43.438-.554.783-.123.345-.207.784-.253 1.313-.046.53-.07 1.156-.07 1.877 0 .768.024 1.425.07 1.97.046.545.13.994.253 1.347.123.354.296.611.52.772.221.161.509.241.863.241.537 0 .928-.23 1.174-.69.246-.461.37-1.198.37-2.211h3.039c0 1.628-.365 2.867-1.094 3.72-.73.852-1.939 1.278-3.628 1.278-.798 0-1.493-.096-2.084-.288a3.023 3.023 0 0 1-1.475-1.036c-.39-.5-.687-1.168-.887-2.005-.199-.836-.299-1.877-.299-3.12 0-1.275.123-2.33.369-3.168.245-.837.591-1.505 1.036-2.004.446-.5.975-.848 1.59-1.048.613-.199 1.29-.299 2.027-.299 1.474 0 2.583.43 3.328 1.29.745.86 1.117 2.026 1.117 3.5h-3.04c0-.306-.02-.605-.058-.897M32.592 56.014h3.18V43.623h-3.18v12.391Zm0-13.912h3.18v-2.718h-3.18v2.718ZM43.096 50.222c-.245.1-.468.172-.667.218-.646.139-1.107.369-1.383.691-.276.322-.415.76-.415 1.313 0 .476.093.883.277 1.221.184.338.49.506.922.506.214 0 .438-.034.667-.103.23-.07.441-.18.634-.333.191-.154.349-.354.472-.6.122-.245.184-.537.184-.875v-2.442c-.215.17-.445.304-.691.404Zm-5.113-3.099c0-.72.115-1.324.345-1.807.231-.485.541-.876.933-1.175a3.69 3.69 0 0 1 1.382-.645 7.061 7.061 0 0 1 1.693-.196c.952 0 1.72.092 2.303.276.584.184 1.037.445 1.36.784.322.337.54.74.656 1.208.115.469.172.98.172 1.532v6.519c0 .584.028 1.037.082 1.36.053.322.156.667.31 1.035h-3.04c-.108-.199-.189-.41-.241-.633a23.476 23.476 0 0 1-.15-.656h-.046c-.37.645-.795 1.063-1.28 1.255-.483.192-1.109.288-1.876.288-.553 0-1.021-.096-1.406-.288a2.377 2.377 0 0 1-.921-.795c-.23-.337-.4-.717-.507-1.14a5.087 5.087 0 0 1-.161-1.255c0-.584.061-1.086.184-1.509.123-.422.312-.783.565-1.083.253-.299.576-.548.967-.748.391-.2.864-.376 1.417-.53l1.796-.484c.476-.122.807-.292.99-.507.185-.214.277-.529.277-.943 0-.477-.112-.85-.333-1.118-.223-.268-.603-.403-1.141-.403-.492 0-.86.146-1.106.438-.245.291-.368.683-.368 1.175v.344h-2.856v-.299ZM49.2 56.014h3.178V39.568H49.2zM60.256 56.014h3.178V43.623h-3.178v12.391Zm0-13.912h3.178v-2.718h-3.178v2.718ZM68.71 43.623v1.266h.045c.4-.568.848-.975 1.347-1.22.5-.246 1.095-.369 1.786-.369.737 0 1.354.169 1.854.506.5.338.833.83 1.002 1.474h.046c.245-.66.641-1.154 1.186-1.485.545-.33 1.194-.495 1.947-.495 1.06 0 1.838.319 2.338.956.498.638.748 1.555.748 2.752v9.006h-3.178v-8.66c0-.522-.096-.922-.288-1.198-.192-.277-.511-.415-.956-.415-.507 0-.91.17-1.21.508-.299.337-.45.874-.45 1.611v8.154H71.75v-8.66c0-.522-.095-.922-.288-1.198-.191-.277-.51-.415-.955-.415-.507 0-.91.17-1.21.508-.299.337-.449.874-.449 1.611v8.154H65.67V43.623h3.04M86.617 52.87c.208.684.665 1.026 1.371 1.026.691 0 1.14-.342 1.347-1.025.208-.684.312-1.7.312-3.053 0-1.35-.104-2.369-.312-3.051-.207-.684-.656-1.026-1.347-1.026-.706 0-1.163.342-1.37 1.026-.207.682-.31 1.7-.31 3.051 0 1.352.103 2.37.31 3.053Zm-.449-9.247v1.312h.047c.353-.583.748-1.002 1.186-1.256.438-.252.98-.379 1.624-.379 1.305 0 2.264.511 2.88 1.531.614 1.022.92 2.684.92 4.987 0 2.304-.306 3.955-.92 4.953-.616.998-1.575 1.497-2.88 1.497-.6 0-1.11-.112-1.532-.335-.423-.221-.803-.578-1.14-1.07h-.046V60h-3.179V43.623h3.04ZM99.735 50.222c-.245.1-.468.172-.667.218-.645.139-1.106.369-1.382.691-.277.322-.415.76-.415 1.313 0 .476.092.883.276 1.221.185.338.491.506.922.506.214 0 .438-.034.668-.103a1.772 1.772 0 0 0 1.105-.933c.123-.245.185-.537.185-.875v-2.442c-.215.17-.446.304-.692.404Zm-5.112-3.099c0-.72.114-1.324.344-1.807.231-.485.542-.876.934-1.175.39-.3.852-.515 1.382-.645a7.061 7.061 0 0 1 1.693-.196c.951 0 1.719.092 2.303.276.584.184 1.036.445 1.359.784.322.337.54.74.657 1.208.114.469.172.98.172 1.532v6.519c0 .584.027 1.037.081 1.36.053.322.157.667.31 1.035h-3.04c-.107-.199-.188-.41-.241-.633a23.448 23.448 0 0 1-.15-.656h-.046c-.369.645-.795 1.063-1.279 1.255-.483.192-1.11.288-1.877.288-.553 0-1.021-.096-1.405-.288a2.374 2.374 0 0 1-.922-.795c-.23-.337-.4-.717-.507-1.14a5.087 5.087 0 0 1-.161-1.255c0-.584.062-1.086.184-1.509.124-.422.312-.783.565-1.083.254-.299.576-.548.968-.748.39-.2.863-.376 1.416-.53l1.796-.484c.477-.122.807-.292.99-.507.185-.214.278-.529.278-.943 0-.477-.112-.85-.334-1.118-.223-.268-.603-.403-1.14-.403-.493 0-.86.146-1.106.438-.246.291-.369.683-.369 1.175v.344h-2.855v-.299ZM111.633 47.193a3.098 3.098 0 0 0-.208-.796c-.1-.237-.242-.429-.426-.575-.185-.146-.43-.218-.737-.218-.384 0-.699.088-.944.264-.246.177-.43.438-.554.783-.122.345-.207.784-.253 1.313-.046.53-.069 1.156-.069 1.877 0 .768.023 1.425.069 1.97.046.545.13.994.253 1.347.124.354.296.611.52.772.221.161.509.241.863.241.537 0 .928-.23 1.174-.69.246-.461.37-1.198.37-2.211h3.04c0 1.628-.366 2.867-1.094 3.72-.73.852-1.94 1.278-3.629 1.278-.798 0-1.493-.096-2.084-.288a3.02 3.02 0 0 1-1.474-1.036c-.392-.5-.688-1.168-.887-2.005-.2-.836-.3-1.877-.3-3.12 0-1.275.123-2.33.369-3.168.246-.837.591-1.505 1.037-2.004.445-.5.975-.848 1.59-1.048.613-.199 1.289-.299 2.026-.299 1.474 0 2.583.43 3.328 1.29.745.86 1.118 2.026 1.118 3.5h-3.04c0-.306-.02-.605-.058-.897M120.259 40.075v3.548h1.842v2.164h-1.842v6.704c0 .492.073.84.219 1.048.145.207.449.31.91.31a5.58 5.58 0 0 0 .713-.046v2.211c-.353 0-.694.012-1.025.035-.33.023-.68.035-1.048.035-.614 0-1.116-.043-1.509-.127-.391-.084-.69-.254-.898-.507-.207-.253-.35-.587-.426-1.002-.077-.414-.115-.936-.115-1.566v-7.095h-1.612v-2.164h1.612v-3.548h3.179" fill="#041E42"/><path fill="#DA291C" d="M128.758 51.615v-2.856h4.4v-4.4h2.856v4.4h4.399v2.856h-4.4v4.4h-2.855v-4.4h-4.4"/><path d="M148.198 56.014h3.179V43.623h-3.179v12.391Zm0-13.912h3.179v-2.718h-3.179v2.718ZM156.652 43.623v1.45h.045c.338-.614.776-1.063 1.313-1.347.538-.284 1.152-.426 1.843-.426 1.014 0 1.793.276 2.338.829.545.553.818 1.451.818 2.695v9.19h-3.18V47.47c0-.645-.107-1.094-.322-1.347-.215-.254-.56-.38-1.036-.38-1.12 0-1.682.683-1.682 2.05v8.222h-3.178V43.623h3.04M168.168 43.623v1.45h.046c.338-.614.775-1.063 1.313-1.347.538-.284 1.151-.426 1.843-.426 1.014 0 1.793.276 2.338.829.545.553.818 1.451.818 2.695v9.19h-3.18V47.47c0-.645-.107-1.094-.322-1.347-.215-.254-.56-.38-1.036-.38-1.121 0-1.681.683-1.681 2.05v8.222h-3.179V43.623h3.04M179.455 51.569c.03.537.104.999.22 1.382.114.383.287.684.517.898.23.215.537.322.922.322.645 0 1.09-.337 1.335-1.013.246-.675.369-1.788.369-3.34 0-1.55-.123-2.664-.369-3.34-.246-.675-.69-1.013-1.335-1.013-.385 0-.691.108-.922.322-.23.215-.403.515-.518.898a6.032 6.032 0 0 0-.219 1.383c-.031.538-.047 1.121-.047 1.75 0 .63.016 1.213.047 1.751Zm-2.971-4.561c.168-.814.445-1.493.829-2.038.383-.545.886-.96 1.508-1.244.622-.284 1.386-.426 2.293-.426.95-.016 1.742.11 2.372.38.63.269 1.128.68 1.497 1.232.368.553.63 1.237.783 2.05.153.815.23 1.766.23 2.856 0 1.06-.084 1.997-.253 2.81-.169.814-.445 1.494-.83 2.04a3.425 3.425 0 0 1-1.508 1.209c-.621.26-1.385.391-2.291.391-.954.015-1.744-.104-2.373-.357a3.201 3.201 0 0 1-1.497-1.198c-.369-.545-.63-1.228-.784-2.05-.154-.821-.23-1.77-.23-2.845 0-1.06.084-1.996.254-2.81ZM196.753 43.623l-3.11 12.391h-3.685l-3.201-12.391h3.317l1.773 8.868h.046l1.682-8.868h3.178M203.018 50.222c-.246.1-.468.172-.667.218-.646.139-1.107.369-1.383.691-.276.322-.415.76-.415 1.313 0 .476.092.883.277 1.221.184.338.491.506.921.506.215 0 .438-.034.668-.103.23-.07.441-.18.634-.333.191-.154.348-.354.471-.6.124-.245.185-.537.185-.875v-2.442c-.215.17-.445.304-.691.404Zm-5.113-3.099c0-.72.114-1.324.345-1.807.23-.485.54-.876.933-1.175.392-.3.852-.515 1.382-.645a7.064 7.064 0 0 1 1.693-.196c.952 0 1.72.092 2.303.276.584.184 1.037.445 1.36.784.322.337.54.74.656 1.208.115.469.172.98.172 1.532v6.519c0 .584.028 1.037.081 1.36.054.322.157.667.311 1.035h-3.04a2.62 2.62 0 0 1-.242-.633 25.118 25.118 0 0 1-.15-.656h-.046c-.369.645-.794 1.063-1.278 1.255-.484.192-1.11.288-1.877.288-.554 0-1.022-.096-1.406-.288a2.371 2.371 0 0 1-.921-.795c-.23-.337-.4-.717-.507-1.14a5.086 5.086 0 0 1-.161-1.255c0-.584.061-1.086.184-1.509.123-.422.311-.783.565-1.083.253-.299.576-.548.967-.748.391-.2.864-.376 1.416-.53l1.797-.484c.476-.122.807-.292.99-.507.185-.214.277-.529.277-.943 0-.477-.112-.85-.333-1.118-.223-.268-.604-.403-1.141-.403-.492 0-.86.146-1.106.438-.245.291-.368.683-.368 1.175v.344h-2.856v-.299ZM212.876 40.075v3.548h1.843v2.164h-1.843v6.704c0 .492.073.84.219 1.048.146.207.449.31.91.31a5.558 5.558 0 0 0 .714-.046v2.211c-.353 0-.695.012-1.025.035-.33.023-.68.035-1.048.035-.614 0-1.117-.043-1.509-.127-.391-.084-.691-.254-.898-.507-.208-.253-.35-.587-.426-1.002-.077-.414-.115-.936-.115-1.566v-7.095h-1.612v-2.164h1.612v-3.548h3.178M215.94 56.014h3.178V43.623h-3.178v12.391Zm0-13.912h3.178v-2.718h-3.178v2.718ZM224.163 51.569c.03.537.103.999.219 1.382.115.383.288.684.518.898.23.215.537.322.922.322.644 0 1.09-.337 1.335-1.013.246-.675.37-1.788.37-3.34 0-1.55-.124-2.664-.37-3.34-.246-.675-.69-1.013-1.335-1.013-.385 0-.692.108-.922.322-.23.215-.403.515-.518.898a6.032 6.032 0 0 0-.219 1.383c-.031.538-.046 1.121-.046 1.75 0 .63.015 1.213.046 1.751Zm-2.972-4.561c.17-.814.446-1.493.83-2.038.383-.545.886-.96 1.508-1.244.622-.284 1.386-.426 2.293-.426.951-.016 1.742.11 2.372.38.629.269 1.128.68 1.497 1.232.368.553.63 1.237.783 2.05.153.815.23 1.766.23 2.856 0 1.06-.085 1.997-.253 2.81-.169.814-.446 1.494-.83 2.04a3.429 3.429 0 0 1-1.508 1.209c-.622.26-1.386.391-2.291.391-.953.015-1.744-.104-2.374-.357a3.201 3.201 0 0 1-1.496-1.198c-.369-.545-.63-1.228-.784-2.05-.153-.821-.23-1.77-.23-2.845 0-1.06.084-1.996.253-2.81ZM235.45 43.623v1.45h.045c.338-.614.776-1.063 1.314-1.347.537-.284 1.151-.426 1.842-.426 1.013 0 1.792.276 2.339.829.544.553.817 1.451.817 2.695v9.19h-3.18V47.47c0-.645-.107-1.094-.321-1.347-.216-.254-.561-.38-1.037-.38-1.12 0-1.681.683-1.681 2.05v8.222h-3.18V43.623h3.041" fill="#041E42"/></g></svg>